<svg width="52" height="60" viewBox="0 0 52 60" fill="none" xmlns="http://www.w3.org/2000/svg">
<path d="M51.4175 13.7957C51.4175 10.713 49.935 7.91941 47.1313 5.72757C46.0182 4.85699 44.7994 4.13069 43.504 3.56598C43.4847 2.66444 43.1318 1.80208 42.5135 1.14564C41.8953 0.489204 41.0556 0.0853095 40.1568 0.0120517C39.258 -0.0612061 38.364 0.201375 37.6476 0.749028C36.9312 1.29668 36.4433 2.09051 36.2782 2.97702C36.1132 3.86353 36.2826 4.77977 36.7539 5.54857C37.2252 6.31738 37.9648 6.88415 38.8297 7.1393C39.6946 7.39445 40.6233 7.31985 41.4364 6.92994C42.2495 6.54003 42.8892 5.8625 43.2317 5.02833C45.1681 5.93264 49.9753 8.69261 49.9753 13.8091C49.9753 17.0767 48.6643 22.8253 45.7866 27.7166C43.457 31.68 39.3288 36.3999 32.8776 36.3999C20.8158 36.3999 15.706 20.1863 15.706 13.7352C15.706 10.9987 16.9498 8.65563 19.4039 6.7697C20.3872 6.02266 21.4629 5.40573 22.6042 4.9342C22.9217 5.77966 23.5416 6.47725 24.3439 6.89196C25.1462 7.30667 26.0738 7.409 26.9471 7.17915C27.8205 6.9493 28.5776 6.4036 29.0717 5.6477C29.5659 4.89179 29.7621 3.97942 29.6223 3.08719C29.4825 2.19496 29.0167 1.38632 28.315 0.81779C27.6133 0.249257 26.7256 -0.0387372 25.8238 0.00955101C24.922 0.0578392 24.0701 0.438976 23.4331 1.07919C22.7962 1.7194 22.4193 2.57316 22.3756 3.47522C20.6712 4.13075 14.2638 7.07226 14.2638 13.7251C14.2638 17.3591 15.6354 23.3295 18.6912 28.4864C21.1419 32.6213 25.4583 37.5227 32.2322 37.8185V51.9613C32.2322 58.1132 26.413 58.2914 25.7508 58.2914C20.7082 58.2914 19.8678 53.6152 19.7905 53.0975V46.5355C19.7905 41.8492 17.0439 40.6558 15.6724 40.3533C15.6925 40.1146 15.706 39.8759 15.706 39.6339C15.7073 37.6439 14.9531 35.7276 13.5958 34.2723C12.2385 32.817 10.3793 31.9313 8.39405 31.7942C6.40878 31.6571 4.4455 32.2788 2.90102 33.5337C1.35655 34.7886 0.346076 36.583 0.0738497 38.5543C-0.198376 40.5256 0.287947 42.5267 1.43452 44.1532C2.5811 45.7797 4.30241 46.9102 6.25053 47.3163C8.19866 47.7224 10.2283 47.3737 11.9292 46.3407C13.6301 45.3078 14.8755 43.6676 15.4135 41.7517C16.3716 41.9534 18.3483 42.8241 18.3483 46.5355V53.1446V53.2354C18.3483 53.2992 19.2459 59.7302 25.7441 59.7302C31.9969 59.7302 33.6676 54.8423 33.6676 51.9579V37.8051C46.1262 37.1227 51.4175 20.4956 51.4175 13.7957ZM39.8666 5.83178C39.4315 5.83178 39.0062 5.70267 38.6445 5.46079C38.2828 5.21891 38.001 4.87514 37.8348 4.47301C37.6686 4.07089 37.6255 3.62848 37.7108 3.20182C37.7962 2.77516 38.0063 2.38343 38.3144 2.07622C38.6226 1.76902 39.0149 1.56016 39.4419 1.47608C39.8688 1.39201 40.3111 1.43651 40.7127 1.60395C41.1143 1.77138 41.4572 2.05422 41.698 2.41666C41.9387 2.77909 42.0665 3.20482 42.0652 3.63994C42.0634 4.22187 41.831 4.77936 41.4189 5.19022C41.0068 5.60107 40.4486 5.83179 39.8666 5.83178ZM25.9996 1.43465C26.4341 1.43466 26.8589 1.56343 27.2203 1.80472C27.5817 2.046 27.8635 2.38898 28.0301 2.79032C28.1967 3.19166 28.2406 3.63338 28.1564 4.05967C28.0721 4.48597 27.8633 4.87772 27.5565 5.18546C27.2497 5.4932 26.8586 5.70313 26.4326 5.78872C26.0065 5.87431 25.5647 5.83172 25.1628 5.66635C24.761 5.50098 24.4172 5.22023 24.1748 4.85956C23.9324 4.4989 23.8023 4.07449 23.801 3.63994C23.8005 3.35078 23.8571 3.06436 23.9673 2.79705C24.0776 2.52973 24.2394 2.28674 24.4435 2.08196C24.6477 1.87718 24.8902 1.71462 25.1572 1.60355C25.4242 1.49249 25.7104 1.4351 25.9996 1.43465ZM7.84627 46.0379C6.57801 46.0419 5.33709 45.6695 4.28066 44.9677C3.22424 44.2659 2.39985 43.2664 1.91189 42.0958C1.42393 40.9251 1.29436 39.636 1.53958 38.3916C1.7848 37.1473 2.39379 36.0037 3.28941 35.1057C4.18504 34.2078 5.32701 33.5958 6.5707 33.3473C7.81439 33.0988 9.10385 33.225 10.2758 33.7099C11.4477 34.1947 12.4494 35.0165 13.1539 36.0711C13.8585 37.1257 14.2342 38.3656 14.2335 39.6339C14.2309 41.3263 13.5595 42.9491 12.3656 44.1486C11.1717 45.3482 9.55212 46.0273 7.85972 46.0379H7.84627Z" fill="#F1B740"/>
<path d="M7.85907 36.2049C7.18075 36.2042 6.51746 36.4048 5.95313 36.7811C5.3888 37.1575 4.94878 37.6928 4.68874 38.3193C4.42869 38.9458 4.36031 39.6354 4.49224 40.3007C4.62416 40.9661 4.95047 41.5774 5.42989 42.0573C5.9093 42.5372 6.52028 42.8641 7.18552 42.9967C7.85076 43.1293 8.54038 43.0615 9.16714 42.8021C9.79389 42.5427 10.3296 42.1032 10.7065 41.5392C11.0835 40.9753 11.2847 40.3122 11.2847 39.6339C11.2838 38.7253 10.9227 37.8542 10.2806 37.2114C9.63842 36.5686 8.76763 36.2067 7.85907 36.2049ZM7.85907 41.6206C7.46613 41.6206 7.08201 41.5041 6.75528 41.2858C6.42856 41.0675 6.17391 40.7572 6.02353 40.3942C5.87316 40.0311 5.83381 39.6316 5.91047 39.2463C5.98713 38.8609 6.17636 38.5068 6.45421 38.229C6.73207 37.9511 7.08608 37.7619 7.47147 37.6853C7.85687 37.6086 8.25634 37.6479 8.61938 37.7983C8.98242 37.9487 9.29271 38.2033 9.51102 38.5301C9.72933 38.8568 9.84585 39.2409 9.84585 39.6339C9.84629 39.8952 9.79525 40.1541 9.69565 40.3957C9.59604 40.6373 9.44982 40.857 9.26533 41.0421C9.08084 41.2272 8.8617 41.3742 8.62041 41.4746C8.37913 41.575 8.12042 41.6269 7.85907 41.6274V41.6206Z" fill="#F1B740"/>
</svg>
