<svg width="62" height="63" viewBox="0 0 62 63" fill="none" xmlns="http://www.w3.org/2000/svg">
<g clip-path="url(#clip0_6174_22189)">
<path d="M48.2003 36.5582C48.6157 36.5582 48.9583 36.2161 48.9583 35.8015V29.1263C48.9583 24.3583 44.5557 22.5962 42.2298 22.3267C41.939 22.2956 41.6483 22.4303 41.5029 22.6791C41.4822 22.7102 39.7274 25.4777 34.0268 25.4777C28.3263 25.4777 25.9588 22.7517 25.938 22.7309C25.7927 22.5547 25.585 22.4511 25.3566 22.4511C23.4252 22.4511 21.8677 23.0419 20.7255 24.2028C18.7734 26.2033 18.8149 29.147 18.8149 29.2507V34.6613C18.8149 35.0759 19.1576 35.418 19.5729 35.418C19.9883 35.418 20.3309 35.0759 20.3309 34.6613V29.2299C20.3309 29.2299 20.2894 26.8045 21.8054 25.2497C22.5946 24.4516 23.6744 24.0162 25.0347 23.954C25.855 24.7625 28.6066 26.9703 34.0268 26.9703C39.447 26.9703 41.6691 24.8143 42.479 23.8711C42.9878 23.9748 43.9015 24.2132 44.8153 24.7211C46.5701 25.6954 47.4527 27.1673 47.4527 29.0952V35.7704C47.4527 36.185 47.7954 36.5271 48.2107 36.5271L48.2003 36.5582Z" fill="#F1B740" stroke="#F1B740" stroke-width="0.51" stroke-miterlimit="10"/>
<path d="M17.8389 21.2177C17.9531 21.2177 20.6528 21.197 22.5115 19.1447C23.1449 18.4398 23.5914 17.5899 23.8717 16.6155C25.7407 20.1812 29.4892 22.617 33.788 22.617C38.0868 22.617 41.7937 20.2019 43.6835 16.6674C43.9534 17.6313 44.3999 18.4605 45.0229 19.155C46.8816 21.2073 49.5813 21.2281 49.6955 21.2281C50.0589 21.2281 50.3704 20.9689 50.4328 20.6165C50.8585 18.3776 50.5262 16.5015 49.4256 15.04C48.0965 13.2779 46.0094 12.6353 44.9399 12.4072C44.971 12.0859 44.9814 11.7646 44.9814 11.4433C44.9814 5.28631 39.9558 0.269531 33.788 0.269531C27.6202 0.269531 22.5945 5.28631 22.5945 11.4433C22.5945 11.7646 22.6153 12.0859 22.6361 12.3969C21.577 12.6145 19.4587 13.2468 18.1089 15.0297C17.0082 16.4912 16.6655 18.3673 17.1017 20.6062C17.1743 20.9586 17.4858 21.2177 17.8389 21.2177ZM48.2107 15.9418C48.9375 16.9058 49.2179 18.1496 49.0414 19.6526C48.3041 19.5282 47.0581 19.1758 46.134 18.1392C45.241 17.1545 44.8153 15.7345 44.8672 13.9413C45.7706 14.159 47.2658 14.698 48.2107 15.9522V15.9418ZM33.7776 21.1037C28.6377 21.1037 24.4324 17.0923 24.1105 12.0445C25.9899 11.578 31.3582 9.7952 33.6841 4.07358C34.681 6.5716 37.1938 9.99214 43.4446 11.9823C43.1539 17.0612 38.9278 21.0933 33.7776 21.0933V21.1037ZM43.4031 10.386C36.3215 7.95018 34.8886 3.58641 34.6083 1.81395C39.2082 2.20783 42.9047 5.82531 43.4031 10.386ZM32.8327 1.81395C31.3063 7.95018 26.2392 9.92995 24.1417 10.4897C24.5882 5.90823 28.2432 2.25966 32.8327 1.81395ZM19.303 15.9418C20.2375 14.6876 21.7431 14.1486 22.6465 13.9309C22.6984 15.7241 22.283 17.1338 21.39 18.1185C20.4659 19.1447 19.2199 19.5074 18.4723 19.6318C18.3061 18.1392 18.5865 16.8954 19.303 15.9418Z" fill="#F1B740" stroke="#F1B740" stroke-width="0.51" stroke-miterlimit="10"/>
<path d="M57.7324 36.3303C54.9392 36.0194 50.5366 39.3881 46.2897 42.6324C45.7083 43.0781 45.1372 43.5134 44.5868 43.928C44.618 43.6585 44.6388 43.389 44.6388 43.0988C44.6388 39.9892 40.6619 39.274 40.4957 39.2429C40.4542 39.2429 40.4127 39.2326 40.3711 39.2326H31.2232C29.1881 39.2326 28.1913 38.9527 27.0387 38.6314C25.7407 38.2686 24.2663 37.854 21.1512 37.8333C21.1097 37.8333 21.0682 37.8333 21.0162 37.8333C14.4746 37.8333 11.3077 41.3264 10.6327 42.1867L0.737228 46.4261C0.488023 46.5297 0.311503 46.7681 0.280353 47.048C0.269969 47.162 0.0207649 49.7948 1.46407 53.0495C2.7724 56.0243 5.794 60.1082 12.7406 62.6891C12.8236 62.7202 12.9171 62.741 13.0002 62.741C13.1248 62.741 13.2494 62.7099 13.3636 62.6477C13.3947 62.6269 16.4994 60.9374 18.3788 59.9424C18.6903 59.7765 18.9603 59.621 19.2095 59.4863C20.3828 58.8125 20.8293 58.5638 23.4252 59.0198C26.831 59.621 32.2408 59.932 35.8231 59.932C39.1563 59.932 40.2154 59.082 43.32 56.5633C43.7769 56.2005 44.2753 55.7963 44.836 55.3505C45.6979 54.6664 46.757 53.8476 47.8784 52.9873C52.5718 49.3802 58.9992 44.4256 61.5639 40.9532C61.647 40.8392 61.6989 40.7148 61.7093 40.5801C61.7093 40.5386 62.0311 36.8175 57.722 36.3407L57.7324 36.3303ZM46.9647 51.7849C45.8432 52.6556 44.7737 53.4744 43.9015 54.1585C43.3304 54.6042 42.832 55.0189 42.3751 55.3816C39.2705 57.89 38.6267 58.4083 35.8231 58.4083C32.3135 58.4083 27.0075 58.0973 23.6848 57.5169C20.6632 56.9883 19.8948 57.3303 18.4515 58.1595C18.2231 58.2943 17.9635 58.4394 17.6728 58.5949C16.1256 59.4034 13.7685 60.6887 12.9379 61.1447C2.37782 57.0815 1.75481 49.5253 1.77558 47.6284L11.4011 43.5031C11.5257 43.4512 11.6399 43.358 11.723 43.2439C11.723 43.2439 12.4291 42.2489 13.9347 41.2745C15.9491 39.9789 18.3788 39.3259 21.1201 39.3466C24.0378 39.3673 25.3462 39.7405 26.613 40.0929C27.8174 40.4349 28.9596 40.7563 31.2129 40.7563H40.2881C40.693 40.8392 43.1228 41.4196 43.1228 43.1092C43.1228 44.2805 42.7801 45.1615 42.1467 45.6798C41.9806 45.7834 41.8248 45.8871 41.6794 45.9804C41.6794 45.9804 41.6795 45.9804 41.6691 45.9804C41.2745 46.1669 40.8072 46.2602 40.2673 46.2602H27.6928C27.2775 46.2602 26.9349 46.6023 26.9349 47.0169C26.9349 47.4315 27.2775 47.7735 27.6928 47.7735H40.2673C41.4095 47.7735 42.3751 47.4522 43.102 46.8614C44.3065 46.0633 45.729 44.9749 47.2242 43.8348C50.8585 41.0465 55.3857 37.5845 57.587 37.8333C59.9648 38.0924 60.2244 39.6679 60.2452 40.238C57.7116 43.5342 51.523 48.3022 46.9854 51.7849H46.9647Z" fill="#F1B740" stroke="#F1B740" stroke-width="0.51" stroke-miterlimit="10"/>
</g>
<defs>
<clipPath id="clip0_6174_22189">
<rect width="62" height="63" fill="white"/>
</clipPath>
</defs>
</svg>
