<svg width="49" height="62" viewBox="0 0 49 62" fill="none" xmlns="http://www.w3.org/2000/svg">
<path d="M48.8008 44.5658L35.2154 30.2932V21.6018L37.2818 23.6486C37.4284 23.7946 37.6169 23.8641 37.8089 23.8641C38.0009 23.8641 38.1929 23.7911 38.3395 23.6452C38.6292 23.3533 38.6292 22.8806 38.3395 22.5922L25.2498 9.62974V4.85136H27.9969C28.4088 4.85136 28.7439 4.51774 28.7439 4.10767C28.7439 3.6976 28.4088 3.36398 27.9969 3.36398H25.2498V0.74369C25.2498 0.333618 24.9147 0 24.5028 0C24.0909 0 23.7558 0.333618 23.7558 0.74369V3.3605H21.0157C20.6038 3.3605 20.2687 3.69412 20.2687 4.10419C20.2687 4.51427 20.6038 4.84788 21.0157 4.84788H23.7558V9.62974L10.6661 22.5887C10.3729 22.8771 10.3729 23.3498 10.6661 23.6417C10.8128 23.7876 11.0047 23.8606 11.1967 23.8606C11.3887 23.8606 11.5772 23.7876 11.7238 23.6452L13.7902 21.5983V30.2897L0.204872 44.5658C-0.0778647 44.8647 -0.0673929 45.3373 0.232797 45.6188C0.375911 45.7543 0.560912 45.8238 0.745913 45.8238C0.944876 45.8238 1.14384 45.7473 1.29044 45.591L5.15801 41.525V56.2563C5.15801 56.6664 5.4931 57 5.90499 57C6.31688 57 6.65198 56.6664 6.65198 56.2563V40.1836C6.65198 40.1141 6.63802 40.048 6.62056 39.9855L15.0748 31.1029C15.2074 30.9639 15.2807 30.7797 15.2807 30.5921V20.1213L24.4993 10.9955L33.718 20.1213V30.5921C33.718 30.7832 33.7913 30.9674 33.9239 31.1029L42.3083 39.916C42.2769 39.9994 42.2559 40.0897 42.2559 40.187V55.9505C42.2559 56.3606 42.591 56.6942 43.0029 56.6942C43.4148 56.6942 43.7499 56.3606 43.7499 55.9505V41.4312L47.7082 45.591C47.8548 45.7439 48.0538 45.8238 48.2527 45.8238C48.4377 45.8238 48.6227 45.7578 48.7659 45.6188C49.066 45.3373 49.08 44.8647 48.7938 44.5658H48.8008Z" fill="#F1B740"/>
<path d="M43.2472 61H5.75284C5.33772 61 5 61.2243 5 61.5C5 61.7757 5.33772 62 5.75284 62H43.2472C43.6623 62 44 61.7757 44 61.5C44 61.2243 43.6623 61 43.2472 61Z" fill="#F1B740"/>
<path d="M27.3476 30C27.7073 30 28 29.6898 28 29.3084V24.7099C28 22.6643 26.4299 21 24.5 21C22.5701 21 21 22.6643 21 24.7099V29.3084C21 29.6898 21.2927 30 21.6524 30C22.0122 30 22.3049 29.6898 22.3049 29.3084V24.7099C22.3049 23.4269 23.2896 22.3831 24.5 22.3831C25.7104 22.3831 26.6951 23.4269 26.6951 24.7099V29.3084C26.6951 29.6898 26.9878 30 27.3476 30Z" fill="#F1B740"/>
<path d="M17.008 44.9955V56.2024C17.008 56.6422 17.3916 57 17.8631 57C18.3346 57 18.7182 56.6422 18.7182 56.2024V44.9955C18.7182 42.0214 21.3154 39.5989 24.504 39.5989C27.6926 39.5989 30.2898 42.0214 30.2898 44.9955V56.2024C30.2898 56.6422 30.6734 57 31.1449 57C31.6164 57 32 56.6422 32 56.2024V44.9955C32 41.1381 28.6356 38 24.5 38C20.3644 38 17 41.1381 17 44.9955H17.008Z" fill="#F1B740"/>
</svg>
