<svg width="88" height="60" viewBox="0 0 88 60" fill="none" xmlns="http://www.w3.org/2000/svg">
<path d="M44.3359 0C38.4805 0 32.7566 1.73633 27.888 4.98941C23.0194 8.24249 19.2248 12.8662 16.9841 18.2759C14.7433 23.6856 14.157 29.6382 15.2993 35.3811C16.4417 41.124 19.2613 46.3992 23.4017 50.5396C27.5421 54.68 32.8173 57.4996 38.5602 58.642C44.303 59.7843 50.2557 59.198 55.6654 56.9572C61.0751 54.7165 65.6988 50.9219 68.9519 46.0533C72.205 41.1847 73.9413 35.4608 73.9413 29.6054C73.9336 21.7559 70.812 14.2302 65.2616 8.67974C59.7111 3.12932 52.1854 0.00771448 44.3359 0ZM44.3359 56.6611C38.9848 56.6611 33.7538 55.0743 29.3045 52.1014C24.8552 49.1285 21.3874 44.903 19.3397 39.9592C17.2919 35.0154 16.7561 29.5754 17.8 24.3271C18.844 19.0788 21.4208 14.2579 25.2046 10.4741C28.9884 6.6903 33.8093 4.1135 39.0576 3.06955C44.3059 2.02559 49.7459 2.56139 54.6897 4.60917C59.6335 6.65696 63.859 10.1248 66.8319 14.574C69.8048 19.0233 71.3916 24.2543 71.3916 29.6054C71.3839 36.7787 68.5309 43.6559 63.4587 48.7282C58.3864 53.8004 51.5091 56.6534 44.3359 56.6611Z" fill="#F1B740"/>
<path d="M9.49949 6.4542C9.16332 6.4542 8.84091 6.58774 8.6032 6.82546C8.36549 7.06317 8.23194 7.38558 8.23194 7.72175V15.1522C8.22906 15.7933 8.09878 16.4274 7.84866 17.0177C7.59854 17.608 7.23357 18.1427 6.77498 18.5907L5.31802 20.0476L3.86106 18.5907C3.40247 18.1427 3.03751 17.608 2.78739 17.0177C2.53727 16.4274 2.40698 15.7933 2.4041 15.1522V7.75089C2.31303 7.50552 2.14904 7.29391 1.93417 7.14447C1.7193 6.99503 1.46384 6.91493 1.20211 6.91493C0.940387 6.91493 0.684928 6.99503 0.470058 7.14447C0.255188 7.29391 0.0911999 7.50552 0.000122815 7.75089V15.1814C-0.00552467 16.154 0.183651 17.1179 0.556493 18.0162C0.929336 18.9145 1.47829 19.7291 2.17099 20.4119L4.10875 22.3205V27.5655C3.66535 27.7207 3.25512 27.958 2.89947 28.2649C2.51784 28.591 2.20429 28.9893 1.97679 29.4368C1.74928 29.8843 1.61228 30.3723 1.57364 30.8728L0.291514 47.3656C0.276959 47.6228 0.276959 47.8806 0.291514 48.1378C0.373144 49.4339 0.946224 50.6501 1.89384 51.5381C2.84145 52.4262 4.09218 52.9192 5.39087 52.9166H5.78425C6.46067 52.8691 7.12076 52.6868 7.72567 52.3804C8.33058 52.074 8.8681 51.6497 9.30659 51.1325C9.74508 50.6152 10.0757 50.0155 10.279 49.3686C10.4822 48.7217 10.5541 48.0407 10.4902 47.3656L9.2081 30.8728C9.15422 30.1361 8.88528 29.4314 8.43463 28.8461C7.98399 28.2607 7.37146 27.8206 6.67299 27.5801V22.3205L8.62532 20.3682C9.31802 19.6854 9.86697 18.8708 10.2398 17.9725C10.6127 17.0742 10.8018 16.1103 10.7962 15.1377V7.75089C10.8002 7.57952 10.7694 7.40912 10.7056 7.24999C10.6419 7.09087 10.5465 6.94633 10.4253 6.82512C10.3041 6.7039 10.1595 6.60854 10.0004 6.54478C9.84127 6.48103 9.67087 6.45021 9.49949 6.4542ZM3.81736 35.0397H6.96439L7.72201 44.9033H3.05974L3.81736 35.0397ZM4.00676 32.5192L4.12332 31.0622C4.149 30.744 4.2938 30.4472 4.52879 30.2312C4.76377 30.0151 5.07164 29.8956 5.39087 29.8967H5.49286C5.79316 29.9229 6.07461 30.0542 6.28777 30.2673C6.50093 30.4805 6.63217 30.7619 6.65842 31.0622L6.77498 32.5192H4.00676ZM7.32863 49.4345C7.00157 49.8203 6.56714 50.1002 6.0806 50.2384C5.59406 50.3767 5.07738 50.3671 4.5963 50.2109C4.11521 50.0547 3.69146 49.759 3.37892 49.3613C3.06639 48.9636 2.87921 48.4819 2.84119 47.9775V47.4967H7.91141V47.5987C7.96317 48.2542 7.75369 48.9036 7.32863 49.4053V49.4345Z" fill="#F1B740"/>
<path d="M5.39101 17.2359C5.5587 17.2359 5.72473 17.2027 5.87947 17.1381C6.03422 17.0734 6.1746 16.9788 6.2925 16.8595C6.41039 16.7403 6.50345 16.5988 6.56629 16.4433C6.62913 16.2879 6.66049 16.1215 6.65856 15.9538V7.75111C6.62488 7.4365 6.47606 7.14545 6.24071 6.93396C6.00537 6.72247 5.70014 6.60547 5.38373 6.60547C5.06732 6.60547 4.76208 6.72247 4.52674 6.93396C4.29139 7.14545 4.14257 7.4365 4.10889 7.75111V15.9829C4.1165 16.3179 4.25494 16.6366 4.49456 16.8708C4.73418 17.1049 5.05596 17.236 5.39101 17.2359Z" fill="#F1B740"/>
<path d="M86.2517 3.20553C85.7349 3.0505 85.1821 3.06441 84.6737 3.24521C84.1654 3.42602 83.728 3.76429 83.4252 4.21083C80.8609 8.0572 77.7867 13.8705 77.7867 19.8294C77.7164 25.0544 78.8689 30.2234 81.1523 34.9235L79.0397 51.0229C78.9608 51.6579 79.016 52.3024 79.2017 52.9148C79.3874 53.5271 79.6995 54.0937 80.1179 54.5779C80.7188 55.2611 81.5127 55.7463 82.3948 55.9693C83.277 56.1924 84.206 56.1429 85.0595 55.8274C85.9129 55.5119 86.6508 54.9451 87.1757 54.2019C87.7006 53.4587 87.988 52.5738 88 51.664V5.60951C88.001 5.07523 87.8322 4.55445 87.5179 4.12236C87.2037 3.69027 86.7603 3.36921 86.2517 3.20553ZM83.6291 35.958H85.4795V48.852H81.8808L83.6291 35.958ZM80.3073 19.8294C80.3073 14.2347 83.5709 8.538 85.4503 5.60951V33.4083H83.2503C81.2769 29.1554 80.2717 24.5177 80.3073 19.8294ZM83.498 53.558C83.23 53.5591 82.9648 53.5042 82.7193 53.3968C82.4738 53.2894 82.2534 53.1319 82.0724 52.9344C81.8913 52.7369 81.7535 52.5037 81.6678 52.2498C81.5821 51.9959 81.5505 51.7269 81.5748 51.46H85.4503V51.664C85.4352 52.1716 85.2228 52.6533 84.8583 53.007C84.4938 53.3606 84.0059 53.5583 83.498 53.558Z" fill="#F1B740"/>
<path d="M63.5383 29.6054C63.5344 34.6971 61.5101 39.5792 57.9097 43.1796C54.3093 46.7799 49.4273 48.8043 44.3356 48.8082C43.247 48.8161 42.1598 48.7284 41.0866 48.5459C40.7658 48.5188 40.4465 48.6133 40.1922 48.8107C39.9379 49.0081 39.7672 49.294 39.7139 49.6115C39.6607 49.929 39.7289 50.2549 39.9049 50.5245C40.0809 50.794 40.3519 50.9875 40.664 51.0664C41.8772 51.2708 43.1053 51.3731 44.3356 51.3724C50.0989 51.3456 55.6183 49.0432 59.6923 44.9665C63.7663 40.8898 66.065 35.3688 66.088 29.6054C66.105 28.45 66.027 27.2951 65.8549 26.1524C65.7749 25.843 65.5823 25.5746 65.3148 25.3998C65.0473 25.2249 64.7241 25.1563 64.4086 25.2074C64.0931 25.2585 63.8081 25.4255 63.6094 25.6758C63.4106 25.9261 63.3125 26.2416 63.3343 26.5604C63.4823 27.5685 63.5505 28.5866 63.5383 29.6054Z" fill="#F1B740"/>
<path d="M25.1316 29.6052C25.1355 24.5135 27.1598 19.6314 30.7602 16.0311C34.3606 12.4307 39.2426 10.4063 44.3343 10.4024C46.8761 10.3936 49.3938 10.8945 51.7386 11.8754C54.0835 12.8564 56.2078 14.2976 57.986 16.1137C58.2262 16.3522 58.5509 16.486 58.8894 16.486C59.2278 16.486 59.5525 16.3522 59.7927 16.1137C59.9121 15.997 60.0069 15.8576 60.0717 15.7038C60.1364 15.5499 60.1698 15.3846 60.1698 15.2177C60.1698 15.0507 60.1364 14.8855 60.0717 14.7316C60.0069 14.5777 59.9121 14.4384 59.7927 14.3217C57.7882 12.2355 55.3877 10.5701 52.7317 9.42308C50.0756 8.27604 47.2175 7.67035 44.3245 7.64146C41.4316 7.61258 38.5619 8.16109 35.8835 9.25488C33.2051 10.3487 30.7719 11.9658 28.7261 14.0115C26.6804 16.0572 25.0633 18.4905 23.9695 21.1689C22.8757 23.8473 22.3272 26.717 22.3561 29.6099C22.3849 32.5029 22.9906 35.361 24.1377 38.0171C25.2847 40.6731 26.9501 43.0736 29.0363 45.0781C29.2786 45.3122 29.6026 45.4429 29.9396 45.4423C30.1082 45.4457 30.2757 45.4137 30.4313 45.3485C30.5869 45.2832 30.7271 45.1862 30.8429 45.0635C30.9623 44.9468 31.0571 44.8074 31.1219 44.6535C31.1867 44.4997 31.22 44.3344 31.22 44.1675C31.22 44.0005 31.1867 43.8353 31.1219 43.6814C31.0571 43.5275 30.9623 43.3881 30.8429 43.2714C29.0296 41.488 27.5905 39.3606 26.6098 37.014C25.6291 34.6673 25.1265 32.1485 25.1316 29.6052Z" fill="#F1B740"/>
</svg>
