<svg width="58" height="60" viewBox="0 0 58 60" fill="none" xmlns="http://www.w3.org/2000/svg">
<path d="M16.8602 21.9201C15.4935 21.9201 14.1576 21.5148 13.0212 20.7556C11.8849 19.9963 10.9992 18.9171 10.4762 17.6544C9.95319 16.3918 9.81635 15.0024 10.083 13.662C10.3496 12.3216 11.0077 11.0904 11.9741 10.124C12.9405 9.15761 14.1717 8.4995 15.5121 8.23287C16.8525 7.96625 18.2419 8.10309 19.5045 8.62609C20.7672 9.14909 21.8464 10.0348 22.6057 11.1711C23.3649 12.3075 23.7702 13.6434 23.7702 15.0101C23.7676 16.8419 23.0387 18.598 21.7434 19.8933C20.4481 21.1886 18.692 21.9175 16.8602 21.9201ZM16.8602 9.8501C15.8396 9.8501 14.842 10.1527 13.9935 10.7197C13.1449 11.2867 12.4835 12.0926 12.093 13.0355C11.7024 13.9783 11.6002 15.0158 11.7993 16.0168C11.9984 17.0177 12.4899 17.9371 13.2115 18.6588C13.9332 19.3804 14.8526 19.8719 15.8535 20.071C16.8545 20.2701 17.892 20.1679 18.8348 19.7773C19.7777 19.3868 20.5836 18.7254 21.1506 17.8768C21.7176 17.0283 22.0202 16.0307 22.0202 15.0101C22.0176 13.6424 21.4731 12.3315 20.5059 11.3643C19.5388 10.3972 18.2279 9.85274 16.8602 9.8501Z" fill="#F1B740"/>
<path d="M19.3403 59.9099C18.5158 59.9131 17.7201 59.6066 17.1108 59.051C16.5015 58.4954 16.123 57.7313 16.0503 56.9099L14.8603 43.4499L13.6703 56.8999C13.5865 57.7696 13.1642 58.5716 12.4945 59.1328C11.8248 59.694 10.9613 59.9695 10.0903 59.8999C9.21854 59.8211 8.41343 59.4002 7.85119 58.7293C7.28896 58.0584 7.01539 57.192 7.09034 56.3199L8.90034 35.7299C8.90034 35.6099 8.90034 31.8099 8.90034 29.4899C7.57034 30.8499 6.01034 33.5699 6.00034 38.8799C5.99929 39.59 5.75128 40.2777 5.29882 40.825C4.84636 41.3724 4.21761 41.7453 3.52034 41.8799C3.08519 41.9565 2.63847 41.9361 2.21213 41.8201C1.78578 41.704 1.39033 41.4952 1.05404 41.2086C0.717754 40.922 0.448928 40.5647 0.266776 40.1621C0.0846253 39.7595 -0.00635254 39.3217 0.000344663 38.8799C0.000344663 24.3799 9.27034 22.2999 9.66034 22.2099L10.1703 22.1499H11.9503L12.1703 22.2799C13.4485 23.0763 14.9074 23.5361 16.4111 23.6166C17.9149 23.697 19.4146 23.3954 20.7703 22.7399L21.0403 22.6099L21.3403 22.6699C22.9903 23.0299 28.8103 23.8199 32.1303 24.2599C32.5585 24.321 32.9703 24.4658 33.3425 24.686C33.7146 24.9062 34.0398 25.1976 34.2993 25.5435C34.5589 25.8894 34.7477 26.2831 34.8551 26.702C34.9626 27.1208 34.9864 27.5568 34.9253 27.9849C34.8643 28.413 34.7195 28.8249 34.4992 29.1971C34.279 29.5692 33.9876 29.8943 33.6417 30.1539C33.2958 30.4134 32.9022 30.6023 32.4833 30.7097C32.0644 30.8171 31.6285 30.841 31.2003 30.7799L20.7703 29.2699C20.7703 32.0699 20.8303 35.5499 20.8403 35.7599L22.6603 56.3199C22.7353 57.192 22.4617 58.0584 21.8995 58.7293C21.3373 59.4002 20.5322 59.8211 19.6603 59.8999L19.3403 59.9099ZM14.8603 35.1799C15.1292 35.1702 15.392 35.2612 15.5973 35.435C15.8026 35.6089 15.9356 35.8531 15.9703 36.1199L17.7703 56.7499C17.79 56.9548 17.8499 57.1537 17.9465 57.3355C18.0431 57.5172 18.1745 57.6781 18.3333 57.8091C18.4921 57.94 18.6751 58.0384 18.8719 58.0986C19.0687 58.1588 19.2755 58.1796 19.4803 58.1599C19.6852 58.1402 19.8842 58.0803 20.0659 57.9838C20.2476 57.8872 20.4086 57.7557 20.5395 57.5969C20.6704 57.4381 20.7688 57.2551 20.829 57.0583C20.8892 56.8615 20.91 56.6548 20.8903 56.4499L19.0703 35.8799C19.0703 35.8799 19.0703 35.7299 18.9903 28.2599V27.2599L31.4503 29.1499C31.66 29.1832 31.8744 29.172 32.0795 29.1168C32.2845 29.0617 32.4756 28.9639 32.6403 28.8299C32.8761 28.642 33.0515 28.3891 33.1449 28.1025C33.2382 27.8159 33.2454 27.5082 33.1656 27.2176C33.0857 26.9269 32.9223 26.6661 32.6956 26.4674C32.469 26.2687 32.189 26.141 31.8903 26.0999C28.7103 25.6799 23.2703 24.9299 21.2503 24.5399C19.6933 25.2424 17.9901 25.5601 16.2844 25.4661C14.5788 25.3721 12.9208 24.8693 11.4503 23.9999H10.2603C10.174 23.9895 10.0867 23.9895 10.0003 23.9999C9.66034 24.0699 1.73034 25.8599 1.73034 38.9999C1.72169 39.1892 1.7569 39.378 1.83322 39.5514C1.90955 39.7249 2.02492 39.8784 2.17034 39.9999C2.30722 40.1155 2.46736 40.2004 2.63989 40.2487C2.81243 40.297 2.99333 40.3076 3.17034 40.2799C3.46091 40.2074 3.71818 40.0382 3.8999 39.8001C4.08162 39.5621 4.17699 39.2693 4.17034 38.9699C4.17034 31.0699 7.37034 28.1099 9.26034 27.0499L10.5603 26.3199V27.8099C10.5603 35.9099 10.5603 35.9299 10.5603 35.9799L8.83034 56.4499C8.79421 56.8608 8.92227 57.2692 9.1865 57.5859C9.45074 57.9027 9.82964 58.1018 10.2403 58.1399C10.6495 58.1682 11.0538 58.0373 11.3687 57.7746C11.6837 57.5118 11.8849 57.1375 11.9303 56.7299L13.7703 36.1599C13.7952 35.8875 13.9206 35.6342 14.1222 35.4493C14.3237 35.2644 14.5869 35.1613 14.8603 35.1599V35.1799Z" fill="#F1B740"/>
<path d="M33.8802 27.52C33.7492 27.5204 33.6199 27.4909 33.502 27.4337C33.3842 27.3765 33.281 27.2931 33.2002 27.19C33.0557 27.0091 32.9884 26.7785 33.0127 26.5483C33.037 26.318 33.1511 26.1067 33.3302 25.96L42.8702 18.28C42.9593 18.2072 43.0619 18.1527 43.1721 18.1198C43.2823 18.0869 43.398 18.0762 43.5124 18.0883C43.6267 18.1004 43.7376 18.1351 43.8385 18.1903C43.9394 18.2455 44.0284 18.3201 44.1002 18.41C44.2447 18.5909 44.3121 18.8214 44.2878 19.0517C44.2634 19.2819 44.1493 19.4933 43.9702 19.64L34.4302 27.33C34.2737 27.4538 34.0798 27.5208 33.8802 27.52Z" fill="#F1B740"/>
<path d="M53.5506 40.68H24.0606C23.9379 40.6931 23.8137 40.6803 23.6962 40.6423C23.5788 40.6043 23.4706 40.5421 23.3787 40.4595C23.2869 40.377 23.2135 40.2761 23.1632 40.1633C23.1129 40.0506 23.087 39.9285 23.087 39.805C23.087 39.6815 23.1129 39.5595 23.1632 39.4467C23.2135 39.3339 23.2869 39.233 23.3787 39.1505C23.4706 39.0679 23.5788 39.0057 23.6962 38.9677C23.8137 38.9297 23.9379 38.9169 24.0606 38.93H53.5506C54.1431 38.9195 54.7077 38.6768 55.1229 38.2541C55.5381 37.8314 55.7707 37.2625 55.7706 36.67V4C55.7706 3.40061 55.5325 2.82577 55.1087 2.40194C54.6849 1.97811 54.11 1.74 53.5106 1.74H5.02063C4.42378 1.74525 3.85303 1.98536 3.43192 2.40834C3.01081 2.83132 2.77323 3.40314 2.77063 4V24.21C2.78377 24.3328 2.77093 24.4569 2.73295 24.5744C2.69497 24.6919 2.63269 24.8 2.55016 24.8919C2.46763 24.9837 2.36671 25.0571 2.25394 25.1074C2.14117 25.1577 2.01909 25.1837 1.89563 25.1837C1.77216 25.1837 1.65008 25.1577 1.53731 25.1074C1.42454 25.0571 1.32362 24.9837 1.24109 24.8919C1.15856 24.8 1.09628 24.6919 1.0583 24.5744C1.02032 24.4569 1.00748 24.3328 1.02063 24.21V4C1.02063 2.93913 1.44205 1.92172 2.1922 1.17157C2.94234 0.421427 3.95976 0 5.02063 0H53.5506C54.6115 0 55.6289 0.421427 56.3791 1.17157C57.1292 1.92172 57.5506 2.93913 57.5506 4V36.67C57.5519 37.1961 57.4494 37.7173 57.249 38.2038C57.0486 38.6903 56.7542 39.1324 56.3826 39.5049C56.011 39.8774 55.5696 40.1729 55.0837 40.3746C54.5977 40.5762 54.0768 40.68 53.5506 40.68Z" fill="#F1B740"/>
<path d="M52.3202 36.5401H24.0602C23.9375 36.5533 23.8133 36.5404 23.6958 36.5024C23.5784 36.4645 23.4702 36.4022 23.3784 36.3197C23.2865 36.2371 23.2131 36.1362 23.1628 36.0234C23.1125 35.9107 23.0866 35.7886 23.0866 35.6651C23.0866 35.5417 23.1125 35.4196 23.1628 35.3068C23.2131 35.194 23.2865 35.0931 23.3784 35.0106C23.4702 34.9281 23.5784 34.8658 23.6958 34.8278C23.8133 34.7898 23.9375 34.777 24.0602 34.7901H51.4402V5.87012H7.12023V20.8701C7.13338 20.9929 7.12054 21.117 7.08256 21.2345C7.04457 21.352 6.9823 21.4602 6.89977 21.552C6.81724 21.6438 6.71632 21.7173 6.60355 21.7675C6.49078 21.8178 6.3687 21.8438 6.24523 21.8438C6.12177 21.8438 5.99969 21.8178 5.88692 21.7675C5.77415 21.7173 5.67322 21.6438 5.5907 21.552C5.50817 21.4602 5.44589 21.352 5.40791 21.2345C5.36993 21.117 5.35709 20.9929 5.37023 20.8701V4.99012C5.37287 4.75846 5.46674 4.53719 5.63149 4.37432C5.79624 4.21144 6.01857 4.1201 6.25023 4.12012H52.3202C52.551 4.12012 52.7723 4.21178 52.9354 4.37493C53.0986 4.53809 53.1902 4.75938 53.1902 4.99012V35.6701C53.1902 35.7844 53.1677 35.8975 53.124 36.003C53.0803 36.1086 53.0162 36.2045 52.9354 36.2853C52.8546 36.3661 52.7587 36.4302 52.6532 36.4739C52.5476 36.5176 52.4345 36.5401 52.3202 36.5401Z" fill="#F1B740"/>
</svg>
